# xmcd
#
# Track frame offsets:
# 150
# 11176
# 26807
# 38485
# 51079
# 68744
# 83901
# 99912
# 112506
# 125476
# 140699
# 163233
# 175412
# 193363
# 206939
# 222183
# 236988
# 256980
# 273224
# 283216
#
# Disc length: 4361 seconds
#
#
# Revision: 0
# Processed by: cddbd v1.5.2PL0 Copyright (c) Steve Scherf et al.
# Submitted via: FreeRIP 2.944 
#
DISCID=2f110714
DTITLE=Devil Makes 3 - The Both Of Them
DYEAR=1900
DGENRE=
TTITLE0=The Plank
TTITLE1=Graveyard
TTITLE2=Beneath The Piano
TTITLE3=Ten Feet Tall
TTITLE4=Shades
TTITLE5=Old No 7
TTITLE6=Chained To The Couch
TTITLE7=To The Hilt
TTITLE8=The Bullet
TTITLE9=For My Family
TTITLE10=Never Learn
TTITLE11=North Carolina
TTITLE12=Man Tap
TTITLE13=Sweeping
TTITLE14=Bangor Mash
TTITLE15=Judgement Day
TTITLE16=Tow
TTITLE17=Black Irish
TTITLE18=Long Boots Johnson
TTITLE19=River Deep
EXTD=
EXTT0=
EXTT1=
EXTT2=
EXTT3=
EXTT4=
EXTT5=
EXTT6=
EXTT7=
EXTT8=
EXTT9=
EXTT10=
EXTT11=
EXTT12=
EXTT13=
EXTT14=
EXTT15=
EXTT16=
EXTT17=
EXTT18=
EXTT19=
PLAYORDER=
